<?xml version="1.0" standalone="no"?><!DOCTYPE svg PUBLIC "-//W3C//DTD SVG 1.1//EN" "http://www.w3.org/Graphics/SVG/1.1/DTD/svg11.dtd"><svg t="1590659724939" class="icon" viewBox="0 0 1103 1024" version="1.1" xmlns="http://www.w3.org/2000/svg" p-id="10992" xmlns:xlink="http://www.w3.org/1999/xlink" width="215.4296875" height="200"><defs><style type="text/css"></style></defs><path d="M551.96087 681.935375a44.956448 44.956448 0 0 1-22.801911-6.150042L22.427855 380.02585a45.208205 45.208205 0 0 1 0-78.098342L529.158959 6.150042a45.3161 45.3161 0 0 1 45.585839 0L1081.475902 301.927508a45.208205 45.208205 0 0 1 0 78.098342L574.744798 675.785333a45.208205 45.208205 0 0 1-22.783928 6.150042z m0-639.604383a2.823265 2.823265 0 0 0-1.456589 0.395617L43.773177 338.486092a2.643439 2.643439 0 0 0-1.438607 2.481596 2.715369 2.715369 0 0 0 1.438607 2.499578l506.731104 295.759483a2.877213 2.877213 0 0 0 2.895195 0L1060.130581 343.467266a2.715369 2.715369 0 0 0 1.438606-2.499578 2.643439 2.643439 0 0 0-1.438606-2.481596L553.399476 42.726609a2.805282 2.805282 0 0 0-1.438606-0.395617z" fill="#886FF7" p-id="10993"></path><path d="M551.547271 819.645968a1.150885 1.150885 0 0 1-1.04299 0L115.919285 565.82186a21.237426 21.237426 0 0 0-31.955043 18.324248A21.219444 21.219444 0 0 0 94.502033 602.416409l434.656926 253.788143a42.241079 42.241079 0 0 0 43.715651 0L1007.549518 602.416409a21.237426 21.237426 0 0 0 10.519809-18.342231 21.219444 21.219444 0 0 0-31.937061-18.324248z" fill="#FFCE00" p-id="10994"></path><path d="M551.547271 981.345322a1.025007 1.025007 0 0 1-1.04299 0L115.919285 727.521214a21.237426 21.237426 0 0 0-31.955043 18.342231A21.201461 21.201461 0 0 0 94.502033 764.259623l434.656926 253.644283a42.241079 42.241079 0 0 0 43.715651 0L1007.549518 764.259623a21.237426 21.237426 0 0 0 10.519809-18.324248 21.237426 21.237426 0 0 0-31.937061-18.342231z" fill="#886FF7" p-id="10995"></path></svg>